<svg width="351" height="128" viewBox="0 0 351 128" fill="none" xmlns="http://www.w3.org/2000/svg">
<path d="M11.884 37.0968V72.9697C11.884 73.4139 11.5263 73.7716 11.0821 73.7716H8.67633C8.2321 73.7716 7.87441 73.4139 7.87441 72.9697V37.0968C7.87441 36.8776 7.69557 36.693 7.47057 36.693H1.5283C1.08407 36.693 0.726379 36.3353 0.726379 35.8911V33.6872C0.726379 33.243 1.08407 32.8853 1.5283 32.8853H7.47634C7.69557 32.8853 7.88018 32.7065 7.88018 32.4815V19.0566C7.88018 18.6123 8.23787 18.2546 8.6821 18.2546H11.0879C11.5321 18.2546 11.8898 18.6123 11.8898 19.0566V32.4815C11.8898 32.7007 12.0686 32.8853 12.2936 32.8853H18.207C18.6513 32.8853 19.009 33.243 19.009 33.6872V35.8911C19.009 36.3353 18.6513 36.693 18.207 36.693H12.2936C12.0744 36.693 11.8898 36.8718 11.8898 37.0968H11.884Z" fill="#727171"/>
<path d="M39.0184 0.722046H41.4184C41.8627 0.722046 42.2203 1.07974 42.2203 1.52396V37.893C42.2203 38.291 42.728 38.4468 42.9473 38.118C45.0184 35.0487 48.6241 31.9853 54.7453 31.9853C62.0606 31.9853 65.1644 36.2949 66.0702 37.6968C67.8759 40.6045 68.0721 44.4121 68.0721 48.0179V72.9697C68.0721 73.4139 67.7144 73.7716 67.2702 73.7716H64.8644C64.4202 73.7716 64.0625 73.4139 64.0625 72.9697V48.0179C64.0625 45.2141 63.9644 42.1045 62.4587 39.8026C61.5587 38.2968 59.3548 35.793 54.4395 35.793C48.8261 35.793 45.9242 38.7987 44.4184 41.5045C42.6126 44.7121 42.2146 48.5198 42.2146 52.5294V72.9697C42.2146 73.4139 41.8569 73.7716 41.4127 73.7716H39.0127C38.5684 73.7716 38.2108 73.4139 38.2108 72.9697V1.52396C38.2108 1.07974 38.5684 0.722046 39.0127 0.722046H39.0184Z" fill="#727171"/>
<path d="M89.1033 53.8331C88.8783 53.8331 88.6879 54.0235 88.6937 54.2485C88.8956 64.4368 96.4186 71.0657 104.922 71.0657C111.228 71.0657 116.074 67.5176 118.768 62.4984C118.988 62.0946 119.484 61.9388 119.876 62.1753L121.884 63.358C122.259 63.5772 122.397 64.0561 122.184 64.4311C119.617 68.9714 114.251 74.8733 104.617 74.8733C91.8898 74.8733 84.4764 65.4522 84.4764 53.5273C84.4764 39.2947 94.2955 31.9794 104.317 31.9794C115.105 31.9794 123.303 40.4255 123.643 52.9965C123.655 53.4465 123.28 53.8273 122.83 53.8273H89.0975L89.1033 53.8331ZM118.988 50.0254C119.236 50.0254 119.432 49.8004 119.392 49.5581C118.22 41.6774 112.284 35.7928 104.322 35.7928C96.3609 35.7928 90.3321 41.8562 89.0629 49.5523C89.0225 49.8004 89.2187 50.0254 89.4667 50.0254H118.988Z" fill="#727171"/>
<path d="M197.234 17.6258C196.847 17.9546 196.27 17.8335 196.017 17.395C191.851 10.2239 185.096 10.0393 183.359 10.0393C175.444 10.0393 170.932 15.7508 170.932 22.4662C170.932 29.6834 175.94 32.0834 182.655 35.3949C189.267 38.6026 192.578 40.0045 195.982 42.4103C198.89 44.4122 203.095 47.9198 203.095 55.339C203.095 66.5601 193.674 74.8793 182.251 74.8793C173.632 74.8793 169.224 70.7716 166.721 67.8639C164.448 65.2447 163.323 62.9255 162.671 61.2467C162.521 60.8544 162.694 60.4101 163.08 60.2313L165.434 59.1178C165.844 58.9217 166.346 59.1063 166.513 59.5275C167.453 61.8582 168.924 64.0793 169.824 65.1582C172.83 68.9659 177.74 70.8697 182.349 70.8697C191.367 70.8697 198.486 64.2582 198.486 55.4371C198.486 51.8313 197.084 48.0237 191.972 44.9141C190.069 43.8122 186.163 41.8103 180.648 39.1045C174.036 35.8968 170.724 34.0968 168.423 30.2892C166.923 27.7854 166.317 25.2815 166.317 22.6738C166.317 14.9604 171.526 6.04126 183.451 6.04126C189.953 6.04126 195.89 9.04701 199.351 14.9662C199.547 15.3008 199.467 15.7393 199.167 15.9931L197.222 17.6316L197.234 17.6258Z" fill="#727171"/>
<path d="M231.486 7.73734V72.9696C231.486 73.4138 231.128 73.7715 230.684 73.7715H227.88C227.436 73.7715 227.078 73.4138 227.078 72.9696V7.73734C227.078 7.29311 227.436 6.93542 227.88 6.93542H230.684C231.128 6.93542 231.486 7.29311 231.486 7.73734Z" fill="#727171"/>
<path d="M265.962 7.73734V69.3639C265.962 69.5831 266.141 69.7677 266.366 69.7677H283.801C284.245 69.7677 284.602 70.1254 284.602 70.5696V72.9754C284.602 73.4196 284.245 73.7773 283.801 73.7773H261.958C261.739 73.7773 261.555 73.5985 261.555 73.3735V7.73734C261.555 7.29311 261.912 6.93542 262.356 6.93542H265.16C265.604 6.93542 265.962 7.29311 265.962 7.73734Z" fill="#727171"/>
<path d="M312.682 37.7198L343.328 7.17196C343.478 7.02196 343.68 6.93542 343.893 6.93542H348.399C348.757 6.93542 348.936 7.36811 348.682 7.62196L317.292 38.6198C317.136 38.7756 317.13 39.0294 317.292 39.1852L350.614 73.0908C350.863 73.3446 350.684 73.7715 350.326 73.7715H345.607C345.393 73.7715 345.186 73.685 345.036 73.535L314.084 42.1852C313.928 42.0294 313.68 42.0237 313.524 42.1737L312.255 43.3679C312.094 43.5179 312.001 43.7313 312.001 43.9506V72.9638C312.001 73.4081 311.644 73.7658 311.199 73.7658H308.395C307.951 73.7658 307.594 73.4081 307.594 72.9638V7.73734C307.594 7.29311 307.951 6.93542 308.395 6.93542H311.199C311.644 6.93542 312.001 7.29311 312.001 7.73734V37.4314C312.001 37.7891 312.434 37.9679 312.688 37.7141L312.682 37.7198Z" fill="#727171"/>
<path d="M63.3115 127.967C63.0115 127.967 62.723 127.794 62.5961 127.535C62.4692 127.281 62.5096 126.969 62.7057 126.715C62.9596 126.381 68.0018 119.106 70.5403 115.241C70.9153 114.669 71.2153 114.173 71.4576 113.775C70.5922 114.11 69.2653 114.669 67.3557 115.517L65.3711 116.394C65.2211 116.464 65.0653 116.498 64.9211 116.498C64.5461 116.498 64.2346 116.262 64.1711 115.921C64.1134 115.627 64.2346 115.206 64.7769 114.981C65.2788 114.767 66.0922 114.421 66.7442 114.11L66.9288 114.029C69.6922 112.812 71.8557 111.866 72.6807 111.837C73.0499 111.837 73.3499 111.987 73.523 112.241C73.621 112.391 73.6672 112.564 73.6614 112.742C74.4287 112.166 75.0518 111.883 75.5653 111.883C75.7845 111.883 75.9806 111.935 76.1595 112.033C76.4306 112.183 76.6095 112.414 76.6845 112.685C76.8403 113.279 76.4941 113.983 75.7614 115.165C74.7345 116.827 74.4287 117.652 74.7172 118.015C74.7172 118.015 74.8556 118.067 75.196 118.067C76.996 118.067 81.1498 116.74 84.8537 114.987C87.3402 113.764 88.8344 113.025 89.0363 112.904C89.1575 112.835 89.2844 112.8 89.4229 112.8C89.7575 112.8 90.0748 113.025 90.1902 113.348C90.294 113.637 90.2075 113.937 89.9709 114.127C89.3709 114.623 88.5344 115.627 88.5344 116.227C88.5344 116.827 88.8056 117.64 91.1652 117.64C93.8363 117.64 98.1055 116.475 102.6 114.514C104.654 108.577 112.788 99.2252 118.673 99.2252C119.861 99.2252 120.49 99.8367 120.49 100.985C120.49 105.866 112.165 111.819 103.88 115.575C103.754 116.037 103.69 116.452 103.69 116.815C103.69 117.9 104.896 118.852 106.263 118.852C109.419 118.852 116.371 115.748 117.732 115.125C118.355 113.937 119.757 113.019 120.986 113.019C121.73 113.019 122.411 113.319 122.844 113.839C123.317 113.302 123.536 113.221 123.703 113.221C124.003 113.239 124.326 113.452 124.5 113.654C124.632 113.816 124.696 113.983 124.673 114.156C124.661 114.277 124.603 114.387 124.361 114.825C124.003 115.489 123.259 116.856 123.259 117.537C123.259 117.721 123.259 117.958 124.101 117.958C125.457 117.958 128.896 116.85 133.298 114.998C133.782 114.064 136.176 111.012 137.001 110.1C137.509 109.558 138.023 109.01 138.565 108.467C138.248 108.485 137.896 108.502 137.555 108.502H137.186C136.355 108.502 135.998 108.456 135.732 108.398C135.086 108.266 134.896 107.856 134.93 107.544C134.971 107.123 135.403 106.806 135.934 106.806C135.998 106.806 136.119 106.817 136.286 106.835C136.603 106.869 137.111 106.921 137.694 106.921C138.53 106.916 139.707 106.841 140.232 106.806L140.451 106.794C141.657 105.548 143.642 103.962 144.219 103.512C144.553 103.252 144.853 103.119 145.124 103.119C145.413 103.119 145.649 103.281 145.73 103.541C145.851 103.916 145.632 104.371 145.159 104.723C144.842 104.96 143.907 105.716 143.013 106.483C144.328 106.316 145.672 106.154 146.763 106.154C149.082 106.154 149.572 107.094 149.572 107.885C149.572 108.271 149.278 108.537 148.857 108.537C148.436 108.537 148.038 108.294 148.038 107.885C148.038 107.787 147.94 107.689 146.769 107.689C145.822 107.689 144.617 107.839 143.342 108L143.14 108.023C142.488 108.121 141.83 108.196 141.19 108.271L140.873 108.306C139.938 109.281 139.044 110.204 138.178 111.15C135.046 114.577 133.39 117.623 133.955 118.904C134.192 119.44 134.855 119.712 135.928 119.712C138.357 119.712 145.13 116.515 147.311 115.454C147.565 113.902 148.857 112.373 151.222 112.373C152.307 112.373 153.126 113.117 153.126 114.104C153.126 116.089 151.119 117.34 149.549 117.467C149.884 117.75 150.311 117.946 150.819 118.044C151.176 118.119 151.569 118.154 151.99 118.154C155.365 118.154 160.113 115.944 161.999 114.992C162.109 114.946 162.634 114.716 162.634 114.716C162.651 114.248 162.72 113.816 162.842 113.394C163.067 112.673 163.476 112.523 163.776 112.523C164.186 112.523 164.63 112.789 165.288 113.441C166.205 112.979 167.105 112.494 168.045 111.987L168.184 111.912C168.461 111.133 169.488 111.041 169.603 111.035C170.053 111.035 170.405 111.312 170.486 111.721C170.561 112.102 170.382 112.454 170.036 112.604C170.036 112.604 169.661 112.812 169.568 112.858C169.58 112.95 169.609 113.077 169.678 113.239C170.301 114.641 170.359 116.094 169.834 117.254C170.451 117.508 171.092 117.635 171.743 117.635C173.445 117.635 175.384 117.225 177.674 116.383C177.697 116.377 177.72 116.371 177.743 116.371C177.807 116.371 177.865 116.4 177.905 116.452L178.615 117.404C178.655 117.456 178.667 117.519 178.649 117.583C178.632 117.646 178.586 117.692 178.528 117.715C175.903 118.696 173.688 119.175 171.749 119.175C170.803 119.175 169.863 118.956 168.876 118.512C168.195 119.083 167.267 119.4 166.251 119.4C164.78 119.4 163.378 118.108 162.853 116.29L162.692 116.36C160.69 117.381 155.688 119.7 151.961 119.7C151.436 119.7 150.946 119.654 150.501 119.562C148.984 119.256 147.894 118.362 147.467 117.098C144.126 118.69 138.398 121.24 135.917 121.24C134.371 121.24 133.298 120.808 132.732 119.954C132.242 119.221 132.178 118.194 132.53 116.965C129.594 118.154 125.896 119.481 124.107 119.481C122.636 119.481 121.725 118.731 121.725 117.525C121.725 117.358 121.742 117.179 121.771 116.989C120.3 118.212 119.134 118.829 118.303 118.829C117.553 118.829 117.011 118.119 116.994 117.139C114.052 118.408 109.032 120.392 106.269 120.392C104.042 120.392 102.155 118.754 102.155 116.815C102.155 116.66 102.167 116.492 102.184 116.308C97.794 118.131 93.7901 119.175 91.1652 119.175C88.5402 119.175 86.9998 118.125 86.9998 116.227C86.9998 116.06 87.0171 115.887 87.046 115.719C86.7113 115.869 85.4998 116.4 85.4998 116.4C81.2537 118.379 77.446 119.567 75.3172 119.567C74.4633 119.567 73.8633 119.371 73.5345 118.99C72.4153 117.664 73.6441 115.69 74.4633 114.381C74.6076 114.139 74.7287 113.931 74.8268 113.758C73.4653 114.75 70.823 117.502 69.398 119.815C69.398 119.815 69.3172 119.931 69.3172 119.937C67.7422 122.198 64.0673 127.488 63.8826 127.725C63.7557 127.887 63.5596 127.985 63.3403 127.985L63.3115 127.967ZM164.226 115.656C164.509 116.902 165.363 117.86 166.211 117.86C166.638 117.86 167.036 117.779 167.376 117.623C166.338 116.867 165.478 115.939 164.924 115.327L164.226 115.662V115.656ZM121.021 114.548C120.288 114.664 118.5 115.696 118.5 117.098C118.5 117.156 118.5 117.196 118.5 117.231C119.25 116.85 121.326 115.385 121.759 114.969C121.736 114.923 121.701 114.866 121.65 114.802C121.569 114.704 121.396 114.542 121.13 114.542V114.341L121.021 114.548ZM166.349 114.606C166.903 115.2 167.607 115.898 168.438 116.481C168.726 115.737 168.651 114.767 168.224 113.833C168.19 113.764 168.161 113.7 168.132 113.631C167.532 113.966 166.938 114.289 166.349 114.6V114.606ZM151.176 113.902C149.711 113.902 149.001 114.744 148.822 115.535C148.811 115.621 148.822 115.817 148.869 115.875C148.88 115.875 149.03 115.933 149.267 115.933C150.184 115.933 151.546 115.16 151.546 114.092C151.546 113.983 151.39 113.896 151.182 113.896L151.176 113.902ZM118.65 100.76C113.861 100.76 107.013 108.358 104.584 113.602C111.802 110.158 118.927 104.989 118.927 100.985C118.927 100.893 118.927 100.789 118.915 100.76C118.915 100.76 118.748 100.76 118.65 100.76ZM216.732 121.235C215.191 121.235 214.118 120.802 213.547 119.954C213.057 119.215 212.976 118.235 213.322 117.029C209.959 118.465 207.189 119.164 204.87 119.164C203.924 119.164 202.984 118.944 201.997 118.5C201.316 119.071 200.388 119.389 199.372 119.389C197.901 119.389 196.499 118.096 195.98 116.285L195.818 116.36C194.682 116.89 193.626 117.335 192.645 117.704C192.622 117.71 192.599 117.715 192.576 117.715C192.513 117.715 192.455 117.687 192.415 117.635L191.705 116.683C191.665 116.631 191.653 116.567 191.67 116.504C191.688 116.44 191.734 116.394 191.791 116.371C192.818 115.996 193.926 115.523 195.091 114.969C195.091 114.969 195.443 114.819 195.743 114.692C195.761 114.225 195.83 113.792 195.951 113.377C196.176 112.656 196.586 112.506 196.886 112.506C197.295 112.506 197.739 112.771 198.397 113.423C199.314 112.962 200.214 112.477 201.155 111.969L201.293 111.894C201.57 111.116 202.597 111.023 202.713 111.017C203.162 111.017 203.514 111.294 203.595 111.704C203.67 112.085 203.491 112.437 203.145 112.587C203.145 112.587 202.764 112.794 202.678 112.846C202.689 112.939 202.718 113.066 202.788 113.227C203.411 114.629 203.468 116.083 202.943 117.242C203.561 117.496 204.201 117.623 204.853 117.623C207.305 117.623 210.322 116.758 214.066 114.975C214.568 114.023 217.084 110.867 217.805 110.077C218.307 109.541 218.82 108.998 219.351 108.462C219.143 108.467 218.901 108.473 218.641 108.473H218.312C216.974 108.45 216.495 108.364 216.478 108.364H216.472C215.999 108.364 215.682 107.966 215.682 107.596C215.682 107.233 215.982 106.835 216.645 106.829C216.72 106.829 216.841 106.841 217.014 106.852C217.337 106.881 217.845 106.927 218.422 106.927C219.403 106.916 220.407 106.835 220.932 106.794L221.249 106.771C222.207 105.75 223.885 104.36 224.434 103.904C224.653 103.725 224.826 103.644 225.016 103.644C225.328 103.644 225.616 103.852 225.726 104.152C225.841 104.464 225.749 104.787 225.489 105.006L225.31 105.156C224.935 105.473 224.376 105.946 223.805 106.442C225.12 106.275 226.476 106.114 227.566 106.114C229.637 106.114 230.376 107.048 230.376 107.844C230.376 108.208 230.093 108.473 229.707 108.473C229.389 108.473 229.02 108.289 228.933 107.942C228.876 107.712 228.864 107.654 227.762 107.654H227.566C226.632 107.654 225.432 107.804 224.162 107.96L223.932 107.989C223.28 108.087 222.622 108.162 221.982 108.237L221.664 108.271C220.724 109.252 219.83 110.175 218.97 111.116C215.837 114.542 214.176 117.589 214.741 118.869C214.978 119.406 215.641 119.677 216.714 119.677C219.709 119.677 229.528 114.796 229.874 114.508C230.139 114.121 230.347 113.775 230.549 113.435L230.785 113.042C230.953 112.771 231.212 112.616 231.495 112.616C231.778 112.616 232.026 112.766 232.164 113.002C232.308 113.244 232.308 113.533 232.164 113.787C231.951 114.167 231.639 114.635 231.299 115.142L231.126 115.402C230.555 116.256 230.226 116.798 230.035 117.139C231.714 116.521 234.16 113.908 234.922 113.071C235.13 112.846 235.337 112.742 235.562 112.742C235.862 112.742 236.145 112.927 236.278 113.21C236.405 113.481 236.364 113.775 236.168 114C235.926 114.283 235.724 114.542 235.678 114.6C235.158 115.235 233.803 116.879 233.803 117.508C233.803 117.692 233.803 117.929 234.645 117.929C235.972 117.929 239.318 116.856 243.605 115.062C244.112 114.081 245.445 112.996 246.824 112.996C247.355 112.996 247.856 113.187 248.278 113.544C249.276 112.177 250.481 110.412 251.953 108.162C252.858 106.8 254.549 104.117 254.976 103.437C255.195 103.085 255.506 102.883 255.818 102.883C256.06 102.883 256.279 103.01 256.395 103.218C256.551 103.5 256.51 103.875 256.279 104.256C255.829 104.989 254.151 107.637 253.245 109.027C251.895 111.11 250.637 112.933 249.524 114.456C248.358 116.262 248.185 117.144 248.185 117.502C248.185 117.687 248.185 117.923 249.033 117.923C250.389 117.923 253.816 116.821 258.212 114.969C259.851 114.271 260.872 113.7 261.547 113.319C261.864 113.141 262.072 113.025 262.251 112.939C262.418 112.858 262.585 112.817 262.735 112.817C263.07 112.817 263.347 113.019 263.439 113.337C263.537 113.666 263.404 114.029 263.122 114.208C262.545 114.577 261.72 115.714 261.72 116.279C261.72 117.444 263.981 117.692 265.879 117.692C269.087 117.692 273.137 116.527 275.733 115.373C275.791 115.137 276.489 113.931 276.979 113.596C277.106 113.51 277.256 113.458 277.412 113.458C277.672 113.458 277.908 113.591 278.035 113.81C278.468 112.662 279.368 111.871 280.406 111.871C281.445 111.871 282.252 112.673 282.252 113.775C282.252 114.877 281.202 116.071 280.562 116.712C281.231 116.937 282.149 117.058 283.239 117.058C285.8 117.058 289.862 115.523 290.698 114.992C290.952 114.831 291.189 114.75 291.414 114.75C291.766 114.75 292.043 114.964 292.112 115.281C292.187 115.627 291.979 116.106 291.362 116.377C290.525 116.746 286.204 118.592 283.239 118.592C281.531 118.592 280.187 118.321 279.229 117.79C279.039 117.917 278.843 118.044 278.629 118.171C277.862 118.61 277.147 118.84 276.552 118.84C276.004 118.84 275.566 118.65 275.289 118.287C275.099 118.039 274.995 117.721 274.995 117.358C271.874 118.517 268.406 119.239 265.885 119.239C262.049 119.239 260.185 118.275 260.185 116.29C260.185 116.106 260.203 115.921 260.237 115.742C257.878 116.706 250.764 119.481 249.033 119.481C247.678 119.481 246.795 118.84 246.668 117.796C246.455 117.975 246.253 118.131 246.056 118.258C245.468 118.662 244.908 118.858 244.366 118.858C243.431 118.858 242.831 118.165 242.831 117.098V117.064C240.005 118.194 236.405 119.481 234.657 119.481C233.266 119.481 232.378 118.812 232.28 117.721C231.16 118.477 230.243 118.829 229.412 118.829C228.91 118.829 228.558 118.667 228.374 118.356C228.189 118.033 228.212 117.612 228.449 117.012C225.443 118.454 219.31 121.24 216.726 121.24L216.732 121.235ZM197.388 115.656C197.67 116.902 198.524 117.86 199.372 117.86C199.799 117.86 200.197 117.779 200.538 117.623C199.499 116.867 198.639 115.939 198.086 115.327L197.388 115.662V115.656ZM246.83 114.554C246.126 114.554 245.151 115.287 244.655 116.187C244.522 116.498 244.372 116.948 244.372 117.098C244.372 117.3 244.401 117.346 244.401 117.346C244.476 117.317 244.741 117.271 245.231 116.977C245.762 116.625 246.472 115.881 247.337 114.773C247.187 114.617 247.031 114.548 246.824 114.548L246.83 114.554ZM277.799 114.86C277.533 115.275 277.06 116.054 276.754 116.562C276.454 117.15 276.529 117.335 276.529 117.34C276.87 117.335 277.337 117.15 277.891 116.839C277.972 116.792 278.047 116.752 278.116 116.706C277.891 116.308 277.77 115.846 277.77 115.344C277.77 115.177 277.775 115.015 277.799 114.86ZM199.505 114.612C200.059 115.206 200.763 115.904 201.593 116.487C201.882 115.742 201.807 114.773 201.38 113.839C201.345 113.769 201.316 113.706 201.288 113.637C200.688 113.971 200.093 114.294 199.505 114.606V114.612ZM280.412 113.423C279.893 113.423 279.31 114.214 279.31 115.344C279.31 115.489 279.327 115.615 279.362 115.737C280.245 114.929 280.718 114.144 280.718 113.787C280.718 113.487 280.602 113.423 280.412 113.423Z" fill="#727171"/>
<path d="M91.7856 112.76C91.5145 112.76 91.2722 112.662 91.0933 112.489C90.8972 112.293 90.8049 112.022 90.8222 111.727C90.8395 111.45 90.9606 111.179 91.151 110.989C91.3472 110.793 91.601 110.689 91.8779 110.689C92.1549 110.689 92.4087 110.793 92.5991 110.989C92.7895 111.185 92.8991 111.439 92.8991 111.71C92.8991 111.981 92.7952 112.241 92.5991 112.431C92.3914 112.639 92.0856 112.76 91.7856 112.76Z" fill="#727171"/>
<path d="M265.059 112.979C264.788 112.979 264.546 112.881 264.367 112.708C264.171 112.517 264.078 112.246 264.096 111.946C264.113 111.669 264.228 111.398 264.419 111.208C264.615 111.012 264.869 110.908 265.146 110.908C265.423 110.908 265.676 111.012 265.867 111.208C266.063 111.398 266.167 111.658 266.167 111.929C266.167 112.2 266.063 112.46 265.867 112.65C265.659 112.858 265.359 112.985 265.053 112.985L265.059 112.979Z" fill="#727171"/>
</svg>
