<svg width="445" height="216" viewBox="0 0 445 216" fill="none" xmlns="http://www.w3.org/2000/svg">
<g filter="url(#filter0_f_2001_1050)">
<rect x="35" y="35" width="374.305" height="145.833" rx="29.5726" fill="white"/>
</g>
<path d="M55.8842 81.098V116.971C55.8842 117.415 55.5265 117.773 55.0823 117.773H52.6765C52.2323 117.773 51.8746 117.415 51.8746 116.971V81.098C51.8746 80.8788 51.6957 80.6942 51.4708 80.6942H45.5285C45.0843 80.6942 44.7266 80.3365 44.7266 79.8923V77.6885C44.7266 77.2442 45.0843 76.8865 45.5285 76.8865H51.4765C51.6957 76.8865 51.8804 76.7077 51.8804 76.4827V63.0578C51.8804 62.6136 52.2381 62.2559 52.6823 62.2559H55.088C55.5323 62.2559 55.89 62.6136 55.89 63.0578V76.4827C55.89 76.7019 56.0688 76.8865 56.2938 76.8865H62.2072C62.6514 76.8865 63.0091 77.2442 63.0091 77.6885V79.8923C63.0091 80.3365 62.6514 80.6942 62.2072 80.6942H56.2938C56.0746 80.6942 55.89 80.873 55.89 81.098H55.8842Z" fill="#727171"/>
<path d="M83.0186 44.7227H85.4186C85.8628 44.7227 86.2205 45.0803 86.2205 45.5246V81.8936C86.2205 82.2916 86.7282 82.4474 86.9474 82.1186C89.0186 79.0494 92.6243 75.9859 98.7454 75.9859C106.061 75.9859 109.165 80.2955 110.07 81.6974C111.876 84.6051 112.072 88.4128 112.072 92.0185V116.97C112.072 117.414 111.715 117.772 111.27 117.772H108.865C108.42 117.772 108.063 117.414 108.063 116.97V92.0185C108.063 89.2147 107.965 86.1051 106.459 83.8032C105.559 82.2974 103.355 79.7936 98.4397 79.7936C92.8263 79.7936 89.9243 82.7993 88.4186 85.5051C86.6128 88.7128 86.2148 92.5204 86.2148 96.53V116.97C86.2148 117.414 85.8571 117.772 85.4128 117.772H83.0129C82.5686 117.772 82.2109 117.414 82.2109 116.97V45.5246C82.2109 45.0803 82.5686 44.7227 83.0129 44.7227H83.0186Z" fill="#727171"/>
<path d="M133.103 97.8342C132.878 97.8342 132.688 98.0246 132.694 98.2496C132.896 108.438 140.419 115.067 148.923 115.067C155.228 115.067 160.074 111.519 162.769 106.5C162.988 106.096 163.484 105.94 163.876 106.176L165.884 107.359C166.259 107.578 166.397 108.057 166.184 108.432C163.617 112.973 158.251 118.874 148.617 118.874C135.89 118.874 128.477 109.453 128.477 97.5284C128.477 83.2958 138.296 75.9805 148.317 75.9805C159.105 75.9805 167.303 84.4266 167.644 96.9976C167.655 97.4476 167.28 97.8284 166.83 97.8284H133.098L133.103 97.8342ZM162.988 94.0265C163.236 94.0265 163.432 93.8015 163.392 93.5592C162.221 85.6785 156.284 79.7939 148.323 79.7939C140.361 79.7939 134.332 85.8573 133.063 93.5534C133.023 93.8015 133.219 94.0265 133.467 94.0265H162.988Z" fill="#727171"/>
<path d="M241.234 61.6256C240.848 61.9544 240.271 61.8332 240.017 61.3948C235.851 54.2237 229.096 54.0391 227.359 54.0391C219.444 54.0391 214.932 59.7506 214.932 66.4659C214.932 73.6832 219.94 76.0832 226.655 79.3947C233.267 82.6023 236.578 84.0043 239.982 86.41C242.89 88.4119 247.096 91.9196 247.096 99.3388C247.096 110.56 237.675 118.879 226.252 118.879C217.632 118.879 213.225 114.771 210.721 111.864C208.448 109.244 207.323 106.925 206.671 105.246C206.521 104.854 206.694 104.41 207.08 104.231L209.434 103.118C209.844 102.921 210.346 103.106 210.513 103.527C211.454 105.858 212.925 108.079 213.825 109.158C216.83 112.966 221.74 114.869 226.35 114.869C235.367 114.869 242.486 108.258 242.486 99.4369C242.486 95.8311 241.084 92.0234 235.973 88.9138C234.069 87.8119 230.163 85.81 224.648 83.1043C218.036 79.8966 214.725 78.0966 212.423 74.2889C210.923 71.7851 210.317 69.2813 210.317 66.6736C210.317 58.9602 215.527 50.041 227.452 50.041C233.953 50.041 239.89 53.0468 243.351 58.966C243.548 59.3006 243.467 59.739 243.167 59.9929L241.223 61.6313L241.234 61.6256Z" fill="#727171"/>
<path d="M275.486 51.7375V116.97C275.486 117.414 275.128 117.772 274.684 117.772H271.88C271.436 117.772 271.078 117.414 271.078 116.97V51.7375C271.078 51.2932 271.436 50.9355 271.88 50.9355H274.684C275.128 50.9355 275.486 51.2932 275.486 51.7375Z" fill="#727171"/>
<path d="M309.962 51.7375V113.364C309.962 113.583 310.141 113.768 310.366 113.768H327.801C328.245 113.768 328.603 114.126 328.603 114.57V116.976C328.603 117.42 328.245 117.777 327.801 117.777H305.959C305.739 117.777 305.555 117.599 305.555 117.374V51.7375C305.555 51.2932 305.912 50.9355 306.357 50.9355H309.16C309.605 50.9355 309.962 51.2932 309.962 51.7375Z" fill="#727171"/>
<path d="M356.682 81.72L387.328 51.1721C387.478 51.0221 387.68 50.9355 387.894 50.9355H392.399C392.757 50.9355 392.936 51.3682 392.682 51.6221L361.292 82.62C361.136 82.7757 361.13 83.0296 361.292 83.1853L394.615 117.091C394.863 117.345 394.684 117.772 394.326 117.772H389.607C389.394 117.772 389.186 117.685 389.036 117.535L358.084 86.1853C357.928 86.0296 357.68 86.0238 357.524 86.1738L356.255 87.368C356.094 87.518 356.001 87.7315 356.001 87.9507V116.964C356.001 117.408 355.644 117.766 355.199 117.766H352.396C351.951 117.766 351.594 117.408 351.594 116.964V51.7375C351.594 51.2932 351.951 50.9355 352.396 50.9355H355.199C355.644 50.9355 356.001 51.2932 356.001 51.7375V81.4315C356.001 81.7892 356.434 81.968 356.688 81.7142L356.682 81.72Z" fill="#727171"/>
<path d="M107.312 171.969C107.012 171.969 106.723 171.796 106.596 171.536C106.469 171.282 106.51 170.971 106.706 170.717C106.96 170.382 112.002 163.107 114.54 159.242C114.915 158.671 115.215 158.175 115.458 157.776C114.592 158.111 113.265 158.671 111.356 159.519L109.371 160.396C109.221 160.465 109.066 160.5 108.921 160.5C108.546 160.5 108.235 160.263 108.171 159.923C108.114 159.628 108.235 159.207 108.777 158.982C109.279 158.769 110.092 158.423 110.744 158.111L110.929 158.03C113.692 156.813 115.856 155.867 116.681 155.838C117.05 155.838 117.35 155.988 117.523 156.242C117.621 156.392 117.667 156.565 117.662 156.744C118.429 156.167 119.052 155.884 119.565 155.884C119.785 155.884 119.981 155.936 120.16 156.034C120.431 156.184 120.61 156.415 120.685 156.686C120.84 157.28 120.494 157.984 119.762 159.167C118.735 160.828 118.429 161.653 118.717 162.017C118.717 162.017 118.856 162.069 119.196 162.069C120.996 162.069 125.15 160.742 128.854 158.988C131.34 157.765 132.835 157.026 133.037 156.905C133.158 156.836 133.285 156.801 133.423 156.801C133.758 156.801 134.075 157.026 134.19 157.35C134.294 157.638 134.208 157.938 133.971 158.128C133.371 158.625 132.535 159.628 132.535 160.228C132.535 160.828 132.806 161.642 135.165 161.642C137.836 161.642 142.106 160.476 146.6 158.515C148.654 152.578 156.788 143.227 162.673 143.227C163.861 143.227 164.49 143.838 164.49 144.986C164.49 149.867 156.165 155.821 147.881 159.576C147.754 160.038 147.69 160.453 147.69 160.817C147.69 161.901 148.896 162.853 150.263 162.853C153.419 162.853 160.371 159.75 161.732 159.126C162.356 157.938 163.757 157.021 164.986 157.021C165.731 157.021 166.411 157.321 166.844 157.84C167.317 157.303 167.536 157.223 167.704 157.223C168.004 157.24 168.327 157.453 168.5 157.655C168.632 157.817 168.696 157.984 168.673 158.157C168.661 158.278 168.604 158.388 168.361 158.826C168.004 159.49 167.259 160.857 167.259 161.538C167.259 161.723 167.259 161.959 168.102 161.959C169.457 161.959 172.896 160.851 177.298 159C177.782 158.065 180.177 155.013 181.002 154.101C181.509 153.559 182.023 153.011 182.565 152.469C182.248 152.486 181.896 152.503 181.555 152.503H181.186C180.355 152.503 179.998 152.457 179.732 152.4C179.086 152.267 178.896 151.857 178.93 151.546C178.971 151.125 179.404 150.807 179.934 150.807C179.998 150.807 180.119 150.819 180.286 150.836C180.604 150.871 181.111 150.923 181.694 150.923C182.53 150.917 183.707 150.842 184.232 150.807L184.452 150.796C185.657 149.55 187.642 147.963 188.219 147.513C188.553 147.253 188.853 147.121 189.125 147.121C189.413 147.121 189.65 147.282 189.73 147.542C189.852 147.917 189.632 148.373 189.159 148.725C188.842 148.961 187.907 149.717 187.013 150.484C188.328 150.317 189.673 150.155 190.763 150.155C193.082 150.155 193.573 151.096 193.573 151.886C193.573 152.273 193.278 152.538 192.857 152.538C192.436 152.538 192.038 152.296 192.038 151.886C192.038 151.788 191.94 151.69 190.769 151.69C189.823 151.69 188.617 151.84 187.342 152.002L187.14 152.025C186.488 152.123 185.83 152.198 185.19 152.273L184.873 152.307C183.938 153.282 183.044 154.205 182.178 155.151C179.046 158.578 177.39 161.625 177.955 162.905C178.192 163.442 178.855 163.713 179.929 163.713C182.357 163.713 189.13 160.517 191.311 159.455C191.565 157.903 192.857 156.375 195.223 156.375C196.307 156.375 197.126 157.119 197.126 158.105C197.126 160.09 195.119 161.342 193.55 161.469C193.884 161.751 194.311 161.948 194.819 162.046C195.176 162.121 195.569 162.155 195.99 162.155C199.365 162.155 204.113 159.946 206 158.994C206.109 158.948 206.634 158.717 206.634 158.717C206.651 158.25 206.721 157.817 206.842 157.396C207.067 156.675 207.476 156.525 207.776 156.525C208.186 156.525 208.63 156.79 209.288 157.442C210.205 156.98 211.105 156.496 212.046 155.988L212.184 155.913C212.461 155.134 213.488 155.042 213.603 155.036C214.053 155.036 214.405 155.313 214.486 155.723C214.561 156.103 214.382 156.455 214.036 156.605C214.036 156.605 213.661 156.813 213.569 156.859C213.58 156.951 213.609 157.078 213.678 157.24C214.301 158.642 214.359 160.096 213.834 161.255C214.451 161.509 215.092 161.636 215.744 161.636C217.446 161.636 219.384 161.226 221.674 160.384C221.697 160.378 221.721 160.373 221.744 160.373C221.807 160.373 221.865 160.401 221.905 160.453L222.615 161.405C222.655 161.457 222.667 161.521 222.649 161.584C222.632 161.648 222.586 161.694 222.528 161.717C219.903 162.698 217.688 163.176 215.749 163.176C214.803 163.176 213.863 162.957 212.876 162.513C212.196 163.084 211.267 163.401 210.251 163.401C208.78 163.401 207.378 162.109 206.853 160.292L206.692 160.361C204.69 161.382 199.688 163.701 195.961 163.701C195.436 163.701 194.946 163.655 194.501 163.563C192.984 163.257 191.894 162.363 191.467 161.1C188.127 162.692 182.398 165.242 179.917 165.242C178.371 165.242 177.298 164.809 176.732 163.955C176.242 163.223 176.179 162.196 176.53 160.967C173.594 162.155 169.896 163.482 168.107 163.482C166.636 163.482 165.725 162.732 165.725 161.526C165.725 161.359 165.742 161.18 165.771 160.99C164.3 162.213 163.134 162.83 162.304 162.83C161.554 162.83 161.011 162.121 160.994 161.14C158.052 162.409 153.033 164.394 150.269 164.394C148.042 164.394 146.156 162.755 146.156 160.817C146.156 160.661 146.167 160.494 146.184 160.309C141.794 162.132 137.79 163.176 135.165 163.176C132.54 163.176 131 162.126 131 160.228C131 160.061 131.017 159.888 131.046 159.721C130.712 159.871 129.5 160.401 129.5 160.401C125.254 162.38 121.446 163.569 119.317 163.569C118.464 163.569 117.864 163.373 117.535 162.992C116.415 161.665 117.644 159.692 118.464 158.382C118.608 158.14 118.729 157.932 118.827 157.759C117.465 158.751 114.823 161.503 113.398 163.817C113.398 163.817 113.317 163.932 113.317 163.938C111.742 166.199 108.067 171.49 107.883 171.726C107.756 171.888 107.56 171.986 107.341 171.986L107.312 171.969ZM208.226 159.657C208.509 160.903 209.363 161.861 210.211 161.861C210.638 161.861 211.036 161.78 211.376 161.625C210.338 160.869 209.478 159.94 208.924 159.328L208.226 159.663V159.657ZM165.021 158.55C164.288 158.665 162.5 159.698 162.5 161.1C162.5 161.157 162.5 161.198 162.5 161.232C163.25 160.851 165.327 159.386 165.759 158.971C165.736 158.925 165.702 158.867 165.65 158.803C165.569 158.705 165.396 158.544 165.131 158.544V158.342L165.021 158.55ZM210.349 158.607C210.903 159.201 211.607 159.9 212.438 160.482C212.726 159.738 212.651 158.769 212.224 157.834C212.19 157.765 212.161 157.701 212.132 157.632C211.532 157.967 210.938 158.29 210.349 158.601V158.607ZM195.176 157.903C193.711 157.903 193.002 158.746 192.823 159.536C192.811 159.623 192.823 159.819 192.869 159.876C192.88 159.876 193.03 159.934 193.267 159.934C194.184 159.934 195.546 159.161 195.546 158.094C195.546 157.984 195.39 157.898 195.182 157.898L195.176 157.903ZM162.65 144.761C157.861 144.761 151.013 152.359 148.584 157.603C155.802 154.159 162.927 148.99 162.927 144.986C162.927 144.894 162.927 144.79 162.915 144.761C162.915 144.761 162.748 144.761 162.65 144.761ZM260.732 165.236C259.191 165.236 258.118 164.803 257.547 163.955C257.057 163.217 256.976 162.236 257.322 161.03C253.959 162.467 251.19 163.165 248.87 163.165C247.924 163.165 246.984 162.946 245.997 162.501C245.317 163.073 244.388 163.39 243.372 163.39C241.901 163.39 240.499 162.098 239.98 160.286L239.819 160.361C238.682 160.892 237.626 161.336 236.645 161.705C236.622 161.711 236.599 161.717 236.576 161.717C236.513 161.717 236.455 161.688 236.415 161.636L235.705 160.684C235.665 160.632 235.653 160.569 235.67 160.505C235.688 160.442 235.734 160.396 235.792 160.373C236.819 159.998 237.926 159.525 239.092 158.971C239.092 158.971 239.444 158.821 239.743 158.694C239.761 158.226 239.83 157.794 239.951 157.378C240.176 156.657 240.586 156.507 240.886 156.507C241.295 156.507 241.74 156.773 242.397 157.425C243.315 156.963 244.215 156.478 245.155 155.971L245.293 155.896C245.57 155.117 246.597 155.025 246.713 155.019C247.163 155.019 247.515 155.296 247.595 155.705C247.67 156.086 247.492 156.438 247.145 156.588C247.145 156.588 246.765 156.796 246.678 156.848C246.69 156.94 246.718 157.067 246.788 157.228C247.411 158.63 247.468 160.084 246.943 161.244C247.561 161.498 248.201 161.625 248.853 161.625C251.305 161.625 254.322 160.759 258.066 158.976C258.568 158.025 261.084 154.869 261.805 154.078C262.307 153.542 262.82 153 263.351 152.463C263.143 152.469 262.901 152.475 262.641 152.475H262.313C260.974 152.452 260.495 152.365 260.478 152.365H260.472C259.999 152.365 259.682 151.967 259.682 151.598C259.682 151.234 259.982 150.836 260.645 150.83C260.72 150.83 260.841 150.842 261.015 150.853C261.338 150.882 261.845 150.928 262.422 150.928C263.403 150.917 264.407 150.836 264.932 150.796L265.249 150.773C266.207 149.752 267.886 148.361 268.434 147.905C268.653 147.727 268.826 147.646 269.016 147.646C269.328 147.646 269.616 147.853 269.726 148.153C269.841 148.465 269.749 148.788 269.489 149.007L269.311 149.157C268.936 149.475 268.376 149.948 267.805 150.444C269.12 150.277 270.476 150.115 271.566 150.115C273.638 150.115 274.376 151.05 274.376 151.846C274.376 152.209 274.093 152.475 273.707 152.475C273.389 152.475 273.02 152.29 272.934 151.944C272.876 151.713 272.864 151.655 271.763 151.655H271.566C270.632 151.655 269.432 151.805 268.163 151.961L267.932 151.99C267.28 152.088 266.622 152.163 265.982 152.238L265.664 152.273C264.724 153.253 263.83 154.176 262.97 155.117C259.838 158.544 258.176 161.59 258.741 162.871C258.978 163.407 259.641 163.678 260.715 163.678C263.709 163.678 273.528 158.798 273.874 158.509C274.139 158.123 274.347 157.776 274.549 157.436L274.786 157.044C274.953 156.773 275.213 156.617 275.495 156.617C275.778 156.617 276.026 156.767 276.164 157.003C276.309 157.246 276.309 157.534 276.164 157.788C275.951 158.169 275.639 158.636 275.299 159.144L275.126 159.403C274.555 160.257 274.226 160.8 274.036 161.14C275.714 160.523 278.161 157.909 278.922 157.073C279.13 156.848 279.337 156.744 279.562 156.744C279.862 156.744 280.145 156.928 280.278 157.211C280.405 157.482 280.364 157.776 280.168 158.001C279.926 158.284 279.724 158.544 279.678 158.601C279.159 159.236 277.803 160.88 277.803 161.509C277.803 161.694 277.803 161.93 278.645 161.93C279.972 161.93 283.318 160.857 287.605 159.063C288.112 158.082 289.445 156.998 290.824 156.998C291.355 156.998 291.857 157.188 292.278 157.546C293.276 156.178 294.482 154.413 295.953 152.163C296.859 150.802 298.549 148.119 298.976 147.438C299.195 147.086 299.507 146.884 299.818 146.884C300.06 146.884 300.28 147.011 300.395 147.219C300.551 147.502 300.51 147.877 300.28 148.257C299.83 148.99 298.151 151.638 297.245 153.028C295.895 155.111 294.637 156.934 293.524 158.457C292.359 160.263 292.185 161.146 292.185 161.503C292.185 161.688 292.185 161.925 293.034 161.925C294.389 161.925 297.816 160.823 302.212 158.971C303.851 158.273 304.872 157.701 305.547 157.321C305.864 157.142 306.072 157.026 306.251 156.94C306.418 156.859 306.585 156.819 306.735 156.819C307.07 156.819 307.347 157.021 307.439 157.338C307.537 157.667 307.405 158.03 307.122 158.209C306.545 158.578 305.72 159.715 305.72 160.28C305.72 161.446 307.982 161.694 309.88 161.694C313.087 161.694 317.137 160.528 319.733 159.375C319.791 159.138 320.489 157.932 320.98 157.598C321.106 157.511 321.256 157.459 321.412 157.459C321.672 157.459 321.908 157.592 322.035 157.811C322.468 156.663 323.368 155.873 324.406 155.873C325.445 155.873 326.253 156.675 326.253 157.776C326.253 158.878 325.203 160.073 324.562 160.713C325.231 160.938 326.149 161.059 327.239 161.059C329.801 161.059 333.862 159.525 334.699 158.994C334.952 158.832 335.189 158.751 335.414 158.751C335.766 158.751 336.043 158.965 336.112 159.282C336.187 159.628 335.979 160.107 335.362 160.378C334.526 160.748 330.204 162.594 327.239 162.594C325.531 162.594 324.187 162.323 323.229 161.792C323.039 161.919 322.843 162.046 322.63 162.173C321.862 162.611 321.147 162.842 320.553 162.842C320.005 162.842 319.566 162.651 319.289 162.288C319.099 162.04 318.995 161.723 318.995 161.359C315.874 162.519 312.406 163.24 309.885 163.24C306.049 163.24 304.185 162.276 304.185 160.292C304.185 160.107 304.203 159.923 304.237 159.744C301.878 160.707 294.764 163.482 293.034 163.482C291.678 163.482 290.795 162.842 290.668 161.798C290.455 161.976 290.253 162.132 290.057 162.259C289.468 162.663 288.909 162.859 288.366 162.859C287.432 162.859 286.832 162.167 286.832 161.1V161.065C284.005 162.196 280.405 163.482 278.657 163.482C277.266 163.482 276.378 162.813 276.28 161.723C275.161 162.478 274.243 162.83 273.413 162.83C272.911 162.83 272.559 162.669 272.374 162.357C272.189 162.034 272.213 161.613 272.449 161.013C269.443 162.455 263.311 165.242 260.726 165.242L260.732 165.236ZM241.388 159.657C241.67 160.903 242.524 161.861 243.372 161.861C243.799 161.861 244.197 161.78 244.538 161.625C243.499 160.869 242.64 159.94 242.086 159.328L241.388 159.663V159.657ZM290.83 158.555C290.126 158.555 289.151 159.288 288.655 160.188C288.522 160.5 288.372 160.95 288.372 161.1C288.372 161.301 288.401 161.348 288.401 161.348C288.476 161.319 288.741 161.273 289.232 160.978C289.762 160.626 290.472 159.882 291.337 158.775C291.187 158.619 291.032 158.55 290.824 158.55L290.83 158.555ZM321.799 158.861C321.533 159.276 321.06 160.055 320.755 160.563C320.455 161.151 320.53 161.336 320.53 161.342C320.87 161.336 321.337 161.151 321.891 160.84C321.972 160.794 322.047 160.753 322.116 160.707C321.891 160.309 321.77 159.848 321.77 159.346C321.77 159.178 321.776 159.017 321.799 158.861ZM243.505 158.613C244.059 159.207 244.763 159.905 245.593 160.488C245.882 159.744 245.807 158.775 245.38 157.84C245.345 157.771 245.317 157.707 245.288 157.638C244.688 157.973 244.093 158.296 243.505 158.607V158.613ZM324.412 157.425C323.893 157.425 323.31 158.215 323.31 159.346C323.31 159.49 323.328 159.617 323.362 159.738C324.245 158.93 324.718 158.146 324.718 157.788C324.718 157.488 324.603 157.425 324.412 157.425Z" fill="#727171"/>
<path d="M135.786 156.761C135.515 156.761 135.272 156.663 135.094 156.489C134.897 156.293 134.805 156.022 134.822 155.728C134.84 155.451 134.961 155.18 135.151 154.989C135.347 154.793 135.601 154.689 135.878 154.689C136.155 154.689 136.409 154.793 136.599 154.989C136.79 155.186 136.899 155.439 136.899 155.711C136.899 155.982 136.795 156.241 136.599 156.432C136.392 156.639 136.086 156.761 135.786 156.761Z" fill="#727171"/>
<path d="M309.059 156.979C308.788 156.979 308.546 156.881 308.367 156.708C308.171 156.518 308.078 156.247 308.096 155.947C308.113 155.67 308.228 155.399 308.419 155.208C308.615 155.012 308.869 154.908 309.146 154.908C309.423 154.908 309.677 155.012 309.867 155.208C310.063 155.399 310.167 155.658 310.167 155.929C310.167 156.2 310.063 156.46 309.867 156.65C309.659 156.858 309.359 156.985 309.053 156.985L309.059 156.979Z" fill="#727171"/>
<defs>
<filter id="filter0_f_2001_1050" x="0.208725" y="0.208725" width="443.888" height="215.416" filterUnits="userSpaceOnUse" color-interpolation-filters="sRGB">
<feFlood flood-opacity="0" result="BackgroundImageFix"/>
<feBlend mode="normal" in="SourceGraphic" in2="BackgroundImageFix" result="shape"/>
<feGaussianBlur stdDeviation="17.3956" result="effect1_foregroundBlur_2001_1050"/>
</filter>
</defs>
</svg>
